# xmcd
#
# Track frame offsets:
#	150
#	8805
#	23594
#	30953
#	38662
#	49338
#	61915
#	68099
#	79201
#	88271
#	99708
#	108366
#	129380
#	135054
#	149236
#	158235
#	167338
#	179354
#	192955
#
# Disc length: 2637 seconds
#
# Revision: 1
# Processed by: cddbd v1.5.2PL0 Copyright (c) Steve Scherf et al.
# Submitted via: audiograbber 1.83.01
#
DISCID=f30a4b13
DTITLE=Sampler - Klingende Grüße aus Holdorf
DYEAR=1900
DGENRE=Regionale Gruppen
TTITLE0=Posaunenchor Fladderlohausen - Eröffnungsstück
TTITLE1=Kinderchor Holdorf - Ein Vogel im Käfig
TTITLE2=Jagdhornbläsergruppe Holdorf - Auf, auf zum fröhlichen Jagen
TTITLE3=MGV "Concordia" Holdorf - Jetzt kommen die lustigen Tage
TTITLE4=Bläserchor Handorf-Langenberg - Stari Bunar
TTITLE5=Kirchenchor Holdorf - Das Wandern ist des Müllers Lust
TTITLE6=Jagdhornbläsergruppe Holdorf - Ländler
TTITLE7=Kinderchor Holdorf - Im Wald ist schon der helle Tag
TTITLE8=MGV "Concordia" Holdorf - Wer hier mit uns will fröhlich sein
TTITLE9=Musikverein Holdorf - Wien bleibt Wien
TTITLE10=Posaunenchor Fladderlohausen - Intrade
TTITLE11=Kirchenchor Holdorf - Diandl, wie ist mir so wohl
TTITLE12=Jagdhornbläsergruppe Holdorf - Hegewaldfanfare
TTITLE13=Kinderchor Holdorf - Hoch auf dem gelben Wagen
TTITLE14=Musikverein Holdorf - Jet Set
TTITLE15=MGV "Concordia" Holdorf - Aus der Traube in die Tonne
TTITLE16=MGV "Concordia"  - Weinland
TTITLE17=Blasorchester Handorf-Langenberg - Grüße von der Wolga
TTITLE18=Kirchenchor Holdorf - Unter allen Wipfeln ist Ruh
EXTD=
EXTT0=
EXTT1=
EXTT2=
EXTT3=
EXTT4=
EXTT5=
EXTT6=
EXTT7=
EXTT8=
EXTT9=
EXTT10=
EXTT11=
EXTT12=
EXTT13=
EXTT14=
EXTT15=
EXTT16=
EXTT17=
EXTT18=
PLAYORDER=
